<svg width="19" height="19" viewBox="0 0 19 19" fill="none" xmlns="http://www.w3.org/2000/svg">
<path d="M17.0288 11.562C16.3672 11.489 15.7101 11.3521 15.0713 11.1559C14.2774 10.9141 13.4195 11.124 12.8355 11.708L11.6218 12.9217C9.29467 11.6487 7.35543 9.70951 6.08694 7.38251L7.30067 6.16882C7.88473 5.58479 8.09462 4.727 7.85279 3.93308C7.65658 3.29886 7.52426 2.64183 7.44669 1.97567C7.31892 0.84867 6.36527 0 5.22911 0H2.23127C1.60615 0 1.00384 0.264639 0.584054 0.725476C0.205331 1.14068 0 1.67909 0 2.23574C0 2.30418 0 2.37262 0.00912584 2.44107C0.205331 4.59012 0.775696 6.66616 1.70197 8.61445C2.60086 10.5034 3.8146 12.219 5.29755 13.7019C6.78506 15.1894 8.49616 16.3985 10.3852 17.2973C12.329 18.2236 14.4051 18.7939 16.5588 18.9901C17.184 19.0494 17.8091 18.8396 18.2745 18.4152C18.7353 17.9954 19 17.3932 19 16.7681V13.7703C19 12.6342 18.1513 11.6806 17.0243 11.5529L17.0288 11.562Z" fill="white"/>
</svg>
