<svg width="30" height="30" viewBox="0 0 30 30" fill="none" xmlns="http://www.w3.org/2000/svg">
<path d="M29.4874 5.36641C29.3564 4.12415 28.8029 2.96451 27.9193 2.08139C27.0358 1.19827 25.8758 0.645204 24.6333 0.514682C18.2317 -0.171561 11.7751 -0.171561 5.37355 0.514682C4.12984 0.643735 2.96825 1.19615 2.08331 2.0794C1.19838 2.96266 0.643851 4.12311 0.512597 5.36641C-0.170866 11.7701 -0.170866 18.2282 0.512597 24.6319C0.645036 25.8738 1.19901 27.0328 2.08225 27.9159C2.96549 28.799 4.12468 29.3529 5.36673 29.4853C11.7683 30.1716 18.2249 30.1716 24.6265 29.4853C25.8697 29.3544 27.0305 28.8011 27.9151 27.9179C28.7997 27.0346 29.3547 25.8748 29.4874 24.6319C30.1709 18.2282 30.1709 11.7701 29.4874 5.36641ZM23.476 20.363C23.0397 20.4243 20.9057 20.363 20.795 20.363C20.242 20.3693 19.709 20.1567 19.3121 19.7716C18.8622 19.3371 18.4599 18.8599 18.0202 18.4083C17.8906 18.2697 17.7498 18.142 17.5992 18.0266C17.2481 17.7573 16.9004 17.8187 16.7351 18.2328C16.6059 18.6803 16.5158 19.1381 16.4658 19.6012C16.4368 20.0187 16.1709 20.2829 15.7005 20.3101C15.4091 20.3272 15.1176 20.3323 14.8296 20.3255C13.7797 20.3182 12.7464 20.0625 11.8145 19.5791C10.806 19.0178 9.92729 18.2501 9.23572 17.3262C8.09888 15.8742 7.19044 14.2791 6.37914 12.6346C6.33653 12.5511 5.50479 10.7839 5.48433 10.6987C5.40934 10.4209 5.48433 10.1534 5.71443 10.0597C5.86101 10.0034 8.60168 10.0597 8.6477 10.0597C8.85154 10.0585 9.05047 10.1221 9.21587 10.2412C9.38126 10.3604 9.50458 10.5289 9.56808 10.7226C10.0747 12.0196 10.7684 13.2356 11.627 14.332C11.7472 14.478 11.8879 14.606 12.0446 14.712C12.2678 14.8654 12.4792 14.8125 12.5712 14.5535C12.6804 14.1965 12.7446 13.8272 12.7621 13.4543C12.7775 12.7147 12.7621 12.229 12.7212 11.4894C12.6939 11.0157 12.5269 10.6016 11.8281 10.4669C11.6134 10.4278 11.5946 10.2505 11.7327 10.0733C12.0207 9.70689 12.4144 9.64725 12.8559 9.6268C13.5138 9.5876 14.1717 9.61317 14.8296 9.6268H14.9727C15.259 9.62435 15.5448 9.65292 15.8249 9.71201C15.9905 9.74635 16.1406 9.83295 16.2532 9.95905C16.3659 10.0851 16.435 10.2441 16.4504 10.4124C16.4843 10.599 16.4986 10.7886 16.4931 10.9782C16.476 11.7843 16.4368 12.592 16.4283 13.3981C16.4204 13.7179 16.4495 14.0376 16.5152 14.3507C16.609 14.7819 16.9038 14.8875 17.197 14.5774C17.5769 14.1779 17.9251 13.7494 18.2384 13.2958C18.7933 12.4673 19.2508 11.5775 19.6019 10.6442C19.7928 10.1653 19.9428 10.0597 20.4541 10.0597H23.3618C23.5347 10.0566 23.707 10.0796 23.8731 10.1278C23.9319 10.1433 23.9868 10.1707 24.0345 10.2083C24.0822 10.246 24.1216 10.2931 24.1503 10.3467C24.1789 10.4003 24.1962 10.4592 24.201 10.5198C24.2058 10.5804 24.198 10.6413 24.1782 10.6987C24.035 11.3378 23.6907 11.8797 23.326 12.4029C22.7346 13.2396 22.1108 14.0559 21.5057 14.8824C21.4288 14.9915 21.3588 15.1054 21.2961 15.2232C21.0677 15.6339 21.0847 15.864 21.4154 16.2048C21.9437 16.7485 22.5079 17.2563 23.0175 17.8153C23.3913 18.222 23.7289 18.6604 24.0265 19.1258C24.3998 19.7052 24.1697 20.2573 23.4743 20.3562L23.476 20.363Z" fill="#4D4E53"/>
</svg>
