<svg width="32" height="23" viewBox="0 0 32 23" fill="none" xmlns="http://www.w3.org/2000/svg">
<path fill-rule="evenodd" clip-rule="evenodd" d="M28.5204 0.680886C29.891 1.04765 30.9718 2.12125 31.3407 3.48326C32.0262 5.97103 31.9999 11.1566 31.9999 11.1566C31.9999 11.1566 31.9999 16.3158 31.3409 18.8038C30.9718 20.1656 29.8912 21.2394 28.5204 21.6059C26.0162 22.2609 15.9999 22.2609 15.9999 22.2609C15.9999 22.2609 6.00974 22.2609 3.47948 21.58C2.10863 21.2132 1.02807 20.1394 0.658933 18.7776C0 16.3158 0 11.1304 0 11.1304C0 11.1304 0 5.97103 0.658933 3.48326C1.02783 2.12149 2.135 1.02145 3.47923 0.654931C5.98337 0 15.9997 0 15.9997 0C15.9997 0 26.0162 0 28.5204 0.680886ZM21.1398 11.1306L12.8105 15.897V6.36414L21.1398 11.1306Z" fill="#4D4E53"/>
</svg>
