<svg width="78" height="78" viewBox="0 0 78 78" fill="none" xmlns="http://www.w3.org/2000/svg">
<path d="M77.9971 54.5661C77.9817 54.0252 77.2991 53.4535 76.5984 53.8784C76.0833 54.1875 76.1322 54.6691 75.9261 55.228C69.7415 72.0765 52.9957 77.0008 41.5794 77.0008C22.8374 77.0008 7.73505 68.167 2.17631 53.0878C1.35203 50.8523 0.844587 48.5447 0.628214 46.2062C0.767311 46.9634 0.919287 47.7205 1.10217 48.4777C2.88983 55.9053 6.97516 62.0967 13.3067 66.4466C19.9473 71.0077 27.5615 72.3341 34.3747 72.3341C45.1702 72.3341 52.4625 68.4323 59.1392 62.7405C66.1095 56.8016 70.4369 48.7095 70.3957 39.0464C70.3803 35.567 69.8419 32.4868 69.0408 29.4374C70.1201 26.1254 70.5426 23.6504 70.0171 20.274C69.1181 14.523 65.8828 9.66572 60.8599 6.03434C55.4042 2.08875 48.5446 6.10352e-05 41.0179 6.10352e-05C31.0879 6.10352e-05 20.8025 3.71128 13.4999 9.92326C4.00776 18.0024 -0.834882 29.9757 0.118191 42.2374C0.0769768 43.3706 0.0821285 44.5321 0.125918 45.7246C0.522603 56.4642 8.41765 69.1431 22.1393 74.8168C27.3168 76.957 34.3103 77.9408 40.6985 77.9975C47.6765 78.0619 55.757 75.7543 60.4116 73.1505C69.1207 68.7903 74.9962 62.2667 77.7627 55.6838C78.01 55.0786 78.0049 54.8957 77.9971 54.5687V54.5661ZM9.66438 14.948C17.2761 6.36399 28.883 1.23885 40.7062 1.23885C44.9307 1.23885 49.0211 1.89044 52.8721 3.18589C60.0433 5.59136 65.7385 10.5259 68.5076 16.7276C70.1974 20.5238 70.2489 24.3793 68.9094 28.9404C66.5602 20.4981 61.3029 14.9892 53.717 11.3423C48.9052 9.02701 43.3722 7.80109 37.7156 7.80109C29.7433 7.80109 21.8457 10.1885 15.4755 14.5256C9.8756 18.3424 5.5301 23.4881 2.91044 29.4117C1.54522 32.5048 0.682307 35.8348 0.306229 39.4868C0.270167 30.7844 3.44879 21.9506 9.66438 14.9454V14.948ZM12.928 18.636C19.7206 13.055 28.4811 9.98507 37.5997 9.98507C41.4275 9.98507 45.196 10.5285 48.8022 11.6076C55.0616 13.48 60.2957 17.0135 63.938 21.8244C66.1868 24.7939 67.6421 26.9135 68.5669 29.986C67.7606 32.3245 66.5113 34.2922 64.8885 36.6332C64.6155 37.0273 63.7294 38.1218 63.3997 38.503C62.408 39.6517 60.8702 41.3154 58.8507 41.8047C58.5776 41.8717 58.3252 41.9052 58.1011 41.9052C57.403 41.9052 56.9857 41.5961 56.8518 40.9832C56.7874 40.6818 56.7874 40.3367 56.8492 39.9375C56.9085 39.6774 56.9832 39.389 57.0656 39.0876C58.9073 38.1914 60.203 36.556 60.3266 35.7602C60.3421 35.6443 60.3421 35.5541 60.3241 35.4717C60.2932 35.3275 60.1798 35.0802 59.7574 35.0802C59.6466 35.0802 59.5152 35.0983 59.3761 35.1317C58.2531 35.4047 56.6071 36.5354 55.6411 38.8275C55.5639 38.861 52.0272 39.7418 49.6831 41.0913C49.4359 40.7565 49.1267 40.4526 48.8254 40.159C48.1325 39.4791 47.4782 38.8352 47.6353 37.8772C47.7461 37.5037 47.929 37.1354 48.1917 36.7697C48.9387 35.7241 49.7372 35.0055 50.1648 34.7789C50.3786 34.6553 50.5641 34.5935 50.7161 34.5935C50.7985 34.5935 51.0664 34.6244 51.0664 35.0081C51.0664 35.4253 50.6697 36.2546 49.8274 37.6119L49.7527 37.7355V37.7613C49.745 37.787 49.745 37.8282 49.745 37.872C49.745 38.3202 50.2086 38.521 50.5358 38.521C50.7186 38.521 50.9711 38.4798 51.1334 38.2738L51.1591 38.2223L51.1668 38.2068C51.6176 36.9783 51.8649 35.8606 51.8649 35.0545C51.8649 34.9206 51.8649 34.8124 51.8469 34.6965C51.7825 34.166 51.5455 33.9316 51.0741 33.9316C50.7598 33.9316 50.3735 34.0372 49.9201 34.2458C48.0475 35.0777 47.1897 36.5663 47.1073 36.7028C46.6488 37.4831 46.2778 38.4077 46.8574 39.407C45.3196 40.5865 43.7689 41.7094 42.5196 41.7094C41.4403 41.7094 40.5826 40.8956 39.8974 39.2216C39.6656 38.6962 39.341 38.4257 38.9392 38.4257C38.1999 38.4257 37.3164 39.4018 36.4998 40.4809L37.5121 36.9114V36.8444C37.5147 36.3448 37.1438 36.0769 36.7883 36.0769C36.5204 36.0769 36.1907 36.2366 36.0825 36.6899L35.6575 38.503C35.6575 38.503 30.8664 43.0719 28.8417 43.0719C28.257 43.0719 27.8603 42.7886 27.6285 42.2065C27.5615 42.0391 27.5178 41.864 27.4894 41.6811C29.5347 40.2569 31.7757 38.1527 31.8607 37.1973C31.9045 36.7311 31.8349 36.3834 31.6546 36.1748C31.5207 36.0177 31.3326 35.9404 31.0982 35.9404C30.0679 35.9404 28.2184 37.4857 27.1391 39.2447C26.7579 39.868 26.1809 40.978 26.2015 41.967C24.54 43.2624 22.8322 44.3209 20.702 45.5958C20.4882 43.2264 18.8113 41.6038 17.1885 40.0328C15.5245 38.4257 13.9506 36.9062 13.9506 34.6862C13.9506 34.0037 14.1078 33.2645 14.4194 32.4971C17.2091 25.5485 33.0275 18.1982 39.9489 18.1982C41.7726 18.1982 42.6974 18.7313 42.6974 19.7847C42.6974 20.086 42.6149 20.4568 42.4578 20.8509C41.0746 24.2943 34.8023 28.8811 31.0003 30.8951C30.7324 31.0368 30.5083 31.2712 30.3924 31.5441C30.3564 31.6343 30.3332 31.7528 30.3332 31.8455C30.3332 32.1803 30.547 32.3889 30.8844 32.3889C31.1085 32.3889 31.3403 32.2962 31.5232 32.1391L32.041 31.7296C35.5416 28.9584 41.394 24.3174 42.736 20.9874C42.9163 20.5187 43.0039 20.0989 43.0039 19.7151C43.0039 18.7004 42.3393 17.4874 39.1736 17.4874C31.4846 17.4874 15.9521 24.4668 12.7451 32.4224C12.3278 33.4474 12.1269 34.3874 12.1269 35.2914C12.1269 38.0137 14.0047 39.765 15.8156 41.457C17.4641 42.9972 19.0251 44.4523 19.1178 46.541C18.6284 46.832 18.0695 47.1565 17.4718 47.5068C13.1701 50.0204 7.28169 53.4612 6.57333 55.2202C6.52181 55.3258 6.49605 55.4443 6.49605 55.5628C6.49605 56.1397 7.12972 56.4204 8.44084 56.4204C11.9698 56.4204 18.3013 53.4355 20.1971 48.7584C20.5294 47.8854 20.7046 47.0612 20.7278 46.2371C23.4633 44.5502 25.0732 43.4839 26.3045 42.5413C26.4359 42.9302 26.678 43.2418 27.0515 43.471C27.4405 43.7054 27.8913 43.8265 28.3884 43.8265C29.3131 43.8265 30.2714 43.4195 31.0905 43.0255C32.636 42.276 34.0038 41.1557 35.3072 39.9736L34.4082 43.7827V43.8574C34.4082 44.1329 34.6246 44.3158 34.9594 44.3158C35.2582 44.3158 35.6343 44.1819 35.7734 43.8496C35.8224 43.4247 38.3364 39.8139 39.1092 39.8139C39.1324 39.8139 39.2019 39.8139 39.2534 39.9865C39.9772 41.6863 41.0411 42.549 42.414 42.549C44.0446 42.549 45.7524 41.403 47.3674 40.0921C47.4936 40.2414 47.625 40.3908 47.7512 40.5402C48.0912 40.9291 48.4158 41.2948 48.6476 41.6605C47.6843 42.2374 46.8523 42.8735 46.1696 43.5509C45.4304 44.29 45.1393 44.7794 45.2552 45.0833C45.3222 45.2636 45.5128 45.3511 45.8219 45.3511H45.8245C46.5225 45.3511 47.7615 44.8953 48.4622 44.4703C49.271 43.981 50.376 43.3139 50.1597 42.1267C50.1339 41.9876 50.0927 41.8665 50.0489 41.7455C50.0489 41.7455 50.2756 41.6348 50.3735 41.5729C52.429 40.2414 55.4685 39.5203 55.4685 39.5203C55.4016 39.7521 55.3346 40.0122 55.2857 40.2337C55.1878 40.79 55.1878 41.3231 55.2857 41.7738C55.502 42.7705 56.1769 43.3191 57.1815 43.3191C57.4391 43.3191 57.7199 43.2856 58.0135 43.2109C59.9841 42.7345 63.2374 39.6001 65.0199 36.9552C65.0199 36.9552 66.6169 34.8562 67.6061 32.9091C68.0208 32.0901 68.3788 31.2531 68.6905 30.4109C69.6642 33.8054 69.999 36.319 70.0531 39.0026C69.9037 46.4843 67.0265 53.4277 61.7073 59.0911C56.6328 64.4893 49.6651 68.2829 42.0869 69.7664C39.6166 70.2506 37.0794 70.4978 34.5473 70.4978H34.5447C22.281 70.4978 11.4108 66.7145 5.4657 57.3707C2.70179 53.0285 1.06611 48.1764 0.514875 43.1877C0.656548 34.1711 5.07675 25.0746 12.9229 18.6308L12.928 18.636ZM57.3515 38.3459C58.0238 36.7311 59.1134 35.8065 59.7059 35.6649C59.7548 35.6494 59.796 35.6468 59.8243 35.6468C59.8656 35.6468 59.8759 35.6468 59.8913 35.7112C59.899 35.7421 59.8913 35.8503 59.8733 35.9095C59.8063 36.3268 58.8069 37.5243 57.3515 38.3485V38.3459ZM47.8234 44.0892L47.7074 44.1613C47.455 44.3209 46.927 44.6583 46.6153 44.6583C46.4504 44.6558 46.3834 44.6171 46.3731 44.5862C46.35 44.5141 46.4066 44.2643 47.3983 43.4376L47.4627 43.3861C47.88 43.0306 48.3591 42.7036 48.9542 42.3559C49.0469 42.7808 48.9645 43.3886 47.8234 44.0892ZM27.51 40.9007C27.5847 40.4526 27.7753 39.9968 28.051 39.6053C29.0066 38.2429 30.5058 37.0324 30.6861 37.2256C30.7118 37.2565 30.7427 37.3312 30.5109 37.7098C29.5965 39.2241 28.1566 40.3393 27.5126 40.8982L27.51 40.9007ZM19.0921 47.2544C19.0328 47.7978 18.8989 48.3335 18.6928 48.8409C16.9773 53.1187 10.5737 55.4288 8.33265 55.4288C7.84323 55.4288 7.66807 55.3207 7.66807 55.228C7.66807 55.2048 7.67065 55.1919 7.69126 55.1353C8.19098 53.8862 15.7434 49.2941 18.5846 47.5634L19.0921 47.257V47.2544Z" fill="white"/>
<path d="M26.8418 53.9458C26.6023 53.8144 26.4142 53.6341 26.2777 53.4048C26.1412 53.1756 26.0742 52.9154 26.0742 52.6269C26.0742 52.3384 26.1438 52.0783 26.2803 51.849C26.4168 51.6198 26.6074 51.4394 26.847 51.3081C27.0865 51.1767 27.3544 51.1123 27.6532 51.1123C27.8954 51.1123 28.1143 51.1535 28.3127 51.2385C28.511 51.3235 28.681 51.4446 28.8175 51.6043L28.4646 51.9366C28.2508 51.7073 27.9881 51.5914 27.6764 51.5914C27.4755 51.5914 27.2926 51.6352 27.1329 51.7228C26.9732 51.8104 26.8496 51.934 26.7594 52.0911C26.6692 52.2483 26.6255 52.426 26.6255 52.6243C26.6255 52.8227 26.6692 53.0004 26.7594 53.1575C26.8496 53.3147 26.9732 53.4383 27.1329 53.5259C27.2926 53.6135 27.4729 53.6573 27.6764 53.6573C27.9881 53.6573 28.2508 53.5413 28.4646 53.3069L28.8175 53.6444C28.681 53.8041 28.511 53.9252 28.3101 54.0102C28.1092 54.0952 27.8876 54.1364 27.6481 54.1364C27.3519 54.1364 27.0814 54.072 26.8418 53.9406V53.9458Z" fill="white"/>
<path d="M32.4531 51.1562H32.9992V53.6393H34.5396V54.103H32.4531V51.1588V51.1562Z" fill="white"/>
<path d="M38.0898 51.1562H38.6359V54.1004H38.0898V51.1562Z" fill="white"/>
<path d="M45.1626 51.1562V54.1005H44.7119L43.0865 52.1067V54.1005H42.543V51.1562H42.9937L44.6191 53.15V51.1562H45.1626Z" fill="white"/>
<path d="M49.0664 51.1562H49.6125V54.1005H49.0664V51.1562Z" fill="white"/>
<path d="M54.0801 53.9458C53.8406 53.8145 53.6525 53.6341 53.516 53.4049C53.3795 53.1756 53.3125 52.9155 53.3125 52.627C53.3125 52.3385 53.382 52.0783 53.5186 51.8491C53.6551 51.6198 53.8457 51.4395 54.0853 51.3081C54.3248 51.1768 54.5927 51.1124 54.8915 51.1124C55.1336 51.1124 55.3526 51.1536 55.5509 51.2386C55.7493 51.3236 55.9193 51.4447 56.0558 51.6044L55.7029 51.9366C55.4891 51.7074 55.2264 51.5915 54.9147 51.5915C54.7138 51.5915 54.5309 51.6353 54.3712 51.7228C54.2115 51.8104 54.0878 51.9341 53.9977 52.0912C53.9075 52.2483 53.8637 52.4261 53.8637 52.6244C53.8637 52.8227 53.9075 53.0005 53.9977 53.1576C54.0878 53.3147 54.2115 53.4384 54.3712 53.526C54.5309 53.6135 54.7112 53.6573 54.9147 53.6573C55.2264 53.6573 55.4891 53.5414 55.7029 53.307L56.0558 53.6444C55.9193 53.8041 55.7493 53.9252 55.5484 54.0102C55.3474 54.0952 55.1259 54.1364 54.8864 54.1364C54.5901 54.1364 54.3197 54.072 54.0801 53.9407V53.9458Z" fill="white"/>
</svg>
