<svg width="69" height="68" viewBox="0 0 69 68" fill="none" xmlns="http://www.w3.org/2000/svg">
<g filter="url(#filter0_d_255_214)">
<path d="M10 41.0032H6C5.4475 41.0032 5 41.4506 5 42.0031C5 42.5555 5.4475 43.003 6 43.003H10C10.5525 43.003 11 42.5555 11 42.0031C11 41.4506 10.5525 41.0032 10 41.0032Z" fill="white"/>
<path d="M16.4966 51.5276C16.0191 51.2514 15.4078 51.4139 15.1316 51.8914C15.1316 51.8914 15.1316 51.8926 15.1303 51.8939L13.1303 55.3572C12.8541 55.8359 13.0178 56.4471 13.4966 56.7233C13.9753 56.9996 14.5866 56.8358 14.8628 56.3571L16.8628 52.8938C17.1391 52.4151 16.9753 51.8039 16.4966 51.5276Z" fill="white"/>
<path d="M15.1303 32.1109C15.4066 32.5896 16.0178 32.7534 16.4966 32.4771C16.9753 32.2009 17.1391 31.5897 16.8628 31.111L14.8628 27.6476C14.5866 27.1689 13.9753 27.0052 13.4966 27.2814C13.0178 27.5577 12.8541 28.1688 13.1303 28.6475L15.1303 32.1109Z" fill="white"/>
<path d="M62.0041 33.0032H56.4222C57.096 30.8684 57.9274 28.7874 58.9075 26.7763C60.0251 24.5241 60.714 22.0831 60.9365 19.5783C61.2978 15.29 60.2039 11.6267 57.7736 8.9832C55.2233 6.33723 51.6754 4.89363 48.0024 5.00612C46.321 5.00612 44.6608 5.37983 43.1406 6.09725C41.7854 6.73343 40.2177 6.73343 38.8626 6.09725C37.3424 5.37983 35.6822 5.00612 34.0007 5.00612C26.2235 5.00612 20.9991 10.2293 20.9991 18.0047C21.0304 21.0332 21.7392 24.0154 23.0756 26.7338C24.0658 28.7586 24.9034 30.8546 25.5822 33.0032H22.2743C17.46 32.9382 13.417 36.6078 13.0182 41.4048C12.7944 44.5869 14.2833 47.6466 16.9249 49.4352C19.4427 51.1163 20.9679 53.9322 21.0004 56.9594V62.0001C21.0004 62.5525 21.448 63 22.0005 63H62.0054C62.5579 63 63.0055 62.5525 63.0055 62.0001V34.0031C63.0055 33.4506 62.5579 33.0032 62.0054 33.0032H62.0041ZM22.9994 18.0047C22.9994 11.323 27.3174 7.0059 34.0007 7.0059C35.3884 7.0059 36.7598 7.31587 38.015 7.90956C39.9064 8.79822 42.0967 8.79822 43.9882 7.90956C45.2433 7.31587 46.6135 7.00715 48.0024 7.0059C51.114 6.89717 54.1282 8.10704 56.3009 10.3356C58.3424 12.5566 59.2563 15.6937 58.9437 19.4096C58.7412 21.6669 58.1199 23.8679 57.111 25.8977C54.8632 30.4847 53.3781 35.4067 52.7167 40.4711L52.4505 42.5134C52.2467 44.0782 50.8128 45.1819 49.2463 44.9781C48.2199 44.8444 47.3461 44.1657 46.961 43.2058L44.6733 37.4889C43.8619 35.4617 41.5604 34.4755 39.5326 35.2867C38.5275 35.6891 37.7312 36.484 37.3299 37.4889L35.0421 43.2058C34.4558 44.6707 32.7931 45.3844 31.3266 44.7982C30.3653 44.4145 29.6877 43.5396 29.5539 42.5134L29.2877 40.4711C28.6226 35.3904 27.1311 30.4522 24.8721 25.8539C23.6695 23.4104 23.0294 20.7282 23.0006 18.0047H22.9994ZM61.004 61.0002H22.9994V56.9594C22.9669 53.2723 21.1167 49.8389 18.0525 47.7841C15.9973 46.3918 14.8384 44.0095 15.0134 41.5335C15.3422 37.7877 18.5126 34.9355 22.2731 35.003H26.1673C26.6711 36.8853 27.0499 38.7976 27.3037 40.7298L27.5699 42.7721C27.9175 45.4331 30.3565 47.3079 33.0169 46.9604C34.7608 46.733 36.246 45.5806 36.8998 43.9483L39.1864 38.2314C39.5877 37.229 40.724 36.7415 41.7267 37.1427C42.223 37.3415 42.6168 37.7352 42.8155 38.2314L45.1033 43.9483C46.0997 46.4392 48.9275 47.6516 51.4191 46.6555C53.053 46.0018 54.2057 44.5169 54.4332 42.7721L54.6995 40.7298C54.9533 38.7976 55.3333 36.8853 55.8359 35.003H61.004V61.0002Z" fill="white"/>
</g>
<defs>
<filter id="filter0_d_255_214" x="0" y="0" width="68.0059" height="68" filterUnits="userSpaceOnUse" color-interpolation-filters="sRGB">
<feFlood flood-opacity="0" result="BackgroundImageFix"/>
<feColorMatrix in="SourceAlpha" type="matrix" values="0 0 0 0 0 0 0 0 0 0 0 0 0 0 0 0 0 0 127 0" result="hardAlpha"/>
<feOffset/>
<feGaussianBlur stdDeviation="2.5"/>
<feComposite in2="hardAlpha" operator="out"/>
<feColorMatrix type="matrix" values="0 0 0 0 1 0 0 0 0 1 0 0 0 0 1 0 0 0 0.5 0"/>
<feBlend mode="normal" in2="BackgroundImageFix" result="effect1_dropShadow_255_214"/>
<feBlend mode="normal" in="SourceGraphic" in2="effect1_dropShadow_255_214" result="shape"/>
</filter>
</defs>
</svg>
