<svg width="75" height="68" viewBox="0 0 75 68" fill="none" xmlns="http://www.w3.org/2000/svg">
<g filter="url(#filter0_d_255_296)">
<path d="M69.5533 31.0944C69.4048 30.9639 66.0759 28.1005 60.505 27.9093C60.5697 27.428 60.6065 26.967 60.6065 26.5466V18.9111C60.6065 11.9014 55.546 5.05748 48.1087 5.05748C45.1811 5.05748 42.454 6.19095 40.4113 8.26032C39.6546 9.02526 38.7583 10.0194 37.5737 10.0169C36.3816 10.0144 35.4878 9.03286 34.7235 8.26032C32.597 6.10736 29.7988 4.94856 26.8343 5.00175C19.505 5.12966 14.527 12.0115 14.527 18.9124V26.5478C14.527 26.9658 14.5638 27.4255 14.6285 27.9042C8.96872 28.0486 5.5802 30.9627 5.43039 31.0944C5.15616 31.335 5 31.6807 5 32.0442V61.7336C5 62.4326 5.56877 63 6.26958 63H68.7166C69.4175 63 69.9862 62.4326 69.9862 61.7336V50.8877C69.9862 50.1886 69.4175 49.6212 68.7166 49.6212C68.0158 49.6212 67.4471 50.1886 67.4471 50.8877V60.4684H7.53663V32.6736C8.53706 31.9822 11.2133 30.4308 15.0653 30.4308C15.0653 30.4308 15.6378 31.9872 15.7699 32.3393C16.1723 33.4082 16.6269 34.4593 17.0382 35.5269C18.8816 40.3154 20.3861 45.195 21.9223 50.0873C22.858 53.0039 25.0582 54.8162 27.6634 54.8162C27.6964 54.8162 27.7294 54.8149 27.7624 54.8124C30.7434 54.5781 32.9664 52.6088 33.3917 49.872C33.8475 46.9351 33.8792 43.9362 34.3198 40.998C34.5572 39.4225 35.955 38.208 37.5648 38.208C39.2293 38.208 40.6576 39.4922 40.8289 41.1462L41.6961 49.5592C42.0008 52.5151 44.4676 54.5857 47.3673 54.8137C50.1845 55.0353 52.5167 52.5657 53.2201 50.0506C53.865 47.7963 54.5697 45.5294 55.339 43.2282C56.3014 40.3483 57.3653 37.4127 58.5498 34.377C59.0602 33.0675 59.6048 31.7909 59.9781 30.4333C63.7995 30.451 66.4542 31.9923 67.4445 32.6762V39.7518C67.4445 40.4509 68.0133 41.0183 68.7141 41.0183C69.4149 41.0183 69.9837 40.4509 69.9837 39.7518V32.0467C69.9837 31.6833 69.8275 31.3363 69.5533 31.0969V31.0944ZM55.7072 34.6898H52.8938C52.4139 34.6898 51.9251 34.4885 51.5861 34.1503C50.4765 33.0434 51.284 31.8429 52.1575 30.9715C52.9865 30.1458 53.4435 29.0465 53.4435 27.8763V19.4912C53.4435 18.3223 52.9878 17.223 52.1587 16.396L49.678 13.9213C49.3339 13.5781 49.1371 13.1032 49.1371 12.6169V11.5075C49.1371 11.0224 49.3339 10.5463 49.678 10.2031L51.6001 8.28565C55.7656 9.95736 58.0674 14.5938 58.0674 18.9111V26.5478C58.0674 29.3834 56.7 32.0987 55.7059 34.6898H55.7072ZM20.7441 10.0169C23.9587 7.16991 29.1412 6.25934 32.875 10.0004C34.0138 11.3682 35.7316 12.5523 37.5737 12.551C39.4108 12.5498 41.121 11.3631 42.256 10.0004C43.9801 8.27679 46.3174 7.48652 48.6737 7.62457L47.8815 8.41483C47.0525 9.24182 46.5967 10.3398 46.5967 11.51V12.6194C46.5967 13.7719 47.0651 14.9003 47.8815 15.7146L50.3623 18.1893C50.7114 18.5375 50.9044 19.0011 50.9044 19.4937V27.8789C50.9044 28.3728 50.7127 28.835 50.3635 29.1833C48.4858 31.0564 47.672 33.8312 49.7909 35.9449C50.6073 36.7592 51.7385 37.2265 52.8938 37.2265H54.7588C54.0288 39.2136 53.3458 41.1664 52.711 43.0952C52.0165 45.2001 51.3767 47.2783 50.785 49.3452C50.3254 50.832 49.2031 52.2605 47.5197 52.2859C45.8425 52.1351 44.4041 51.0409 44.2251 49.3008L43.358 40.8891C43.0558 37.9585 40.5204 35.6777 37.5699 35.6777C34.6194 35.6777 32.1437 37.9129 31.7946 40.7852C31.4391 43.7019 31.4048 46.7135 30.8703 49.6035C30.539 51.3905 29.0104 52.1617 27.6202 52.2859C25.4708 52.2529 24.5795 50.0404 24.351 49.3338C23.2325 45.5116 22.0785 41.9377 20.8647 38.536H23.07C24.2507 38.536 25.4048 38.0586 26.2389 37.2278L29.1399 34.3327C29.9867 33.4892 30.4539 32.3659 30.4539 31.1704C30.4539 29.9748 29.988 28.8553 29.1424 28.0118C28.7755 27.6446 28.5737 27.1583 28.5737 26.6403V23.2209C28.5737 22.0443 28.095 20.8919 27.2609 20.0598L24.9274 17.7321C24.0933 16.9 22.938 16.4226 21.7585 16.4226H17.3175C17.7987 14.0151 18.9769 11.8 20.7505 10.022L20.7441 10.0169ZM27.3409 29.7975C27.7078 30.1635 27.9097 30.6499 27.9097 31.1666C27.9097 31.6833 27.7078 32.1709 27.3396 32.5369L24.4373 35.4332C24.0768 35.7929 23.5753 36.0006 23.0637 36.0006H19.9329C19.3527 34.4517 18.6937 32.9295 18.1199 31.3793C17.5625 29.8685 17.0636 28.1676 17.0636 26.5491V18.9504H21.7509C22.2625 18.9504 22.7628 19.1568 23.1246 19.5178L25.4581 21.8455C25.8199 22.2064 26.0269 22.7054 26.0269 23.2158V26.6352C26.0269 27.8282 26.4928 28.9503 27.3383 29.7963L27.3409 29.7975Z" fill="white"/>
<path d="M69.7679 44.6266C68.9109 43.3196 66.8656 44.5518 67.5994 45.9221C68.4094 47.4317 70.7366 46.0361 69.7679 44.6266Z" fill="white"/>
</g>
<defs>
<filter id="filter0_d_255_296" x="0" y="0" width="75" height="68" filterUnits="userSpaceOnUse" color-interpolation-filters="sRGB">
<feFlood flood-opacity="0" result="BackgroundImageFix"/>
<feColorMatrix in="SourceAlpha" type="matrix" values="0 0 0 0 0 0 0 0 0 0 0 0 0 0 0 0 0 0 127 0" result="hardAlpha"/>
<feOffset/>
<feGaussianBlur stdDeviation="2.5"/>
<feComposite in2="hardAlpha" operator="out"/>
<feColorMatrix type="matrix" values="0 0 0 0 1 0 0 0 0 1 0 0 0 0 1 0 0 0 0.5 0"/>
<feBlend mode="normal" in2="BackgroundImageFix" result="effect1_dropShadow_255_296"/>
<feBlend mode="normal" in="SourceGraphic" in2="effect1_dropShadow_255_296" result="shape"/>
</filter>
</defs>
</svg>
