<svg width="73" height="68" viewBox="0 0 73 68" fill="none" xmlns="http://www.w3.org/2000/svg">
<g filter="url(#filter0_d_256_302)">
<path d="M60.65 25.7152H60.5345C58.907 25.7074 57.542 26.9243 57.3845 28.5219C56.9776 32.2102 55.3199 35.6552 52.6805 38.2988L54.497 25.042C57.3359 22.6715 58.8453 19.0984 58.55 15.4411C57.9095 9.43801 52.7304 4.90946 46.6115 5.00137H45.7295C42.9667 5.00008 40.2301 5.52051 37.6655 6.5342C36.9187 6.83455 36.0813 6.83455 35.3345 6.5342C32.7699 5.52051 30.0333 5.00008 27.2705 5.00137H26.3885C20.2696 4.90946 15.0905 9.43801 14.45 15.4411C14.1389 19.088 15.6234 22.6599 18.44 25.042L20.2565 38.3092C17.621 35.6591 15.9646 32.2115 15.5525 28.5219C15.395 26.9243 14.03 25.7074 12.4025 25.7152H12.35C8.29044 25.7152 5 28.9608 5 32.965V59.8929C5 61.6083 6.41094 63 8.15 63H64.85C66.5891 63 68 61.6083 68 59.8929V32.965C68 28.9608 64.7096 25.7152 60.65 25.7152ZM16.55 15.6068C17.0973 10.6795 21.3643 6.97954 26.3885 7.07275H27.2705C29.7629 7.07146 32.2331 7.53881 34.547 8.45022C35.8004 8.94606 37.1996 8.94606 38.453 8.45022C40.7669 7.53881 43.2371 7.07146 45.7295 7.07275H46.6115C51.6357 6.97954 55.9027 10.6795 56.45 15.6068C56.6902 18.7074 55.3475 21.7213 52.8695 23.6438C52.6608 23.8121 52.5256 24.0529 52.4915 24.317L49.3415 47.1022C49.2536 49.0208 47.6667 50.5407 45.719 50.5717C44.0009 50.6002 42.5283 49.369 42.275 47.6925L38.7575 31.6704C38.4871 30.4405 37.2573 29.6599 36.0104 29.9265C35.1258 30.1156 34.4341 30.7978 34.2425 31.6704L30.725 47.6925C30.4717 49.369 28.9991 50.6002 27.281 50.5717C25.3201 50.5575 23.711 49.035 23.6165 47.1022L20.4665 24.317C20.4324 24.0529 20.2972 23.8121 20.0885 23.6438C17.6262 21.7122 16.2993 18.6997 16.55 15.6068ZM65.9 59.8929C65.9 60.4651 65.4301 60.9286 64.85 60.9286H8.15C7.56987 60.9286 7.1 60.4651 7.1 59.8929V32.965C7.1 30.1052 9.45069 27.7865 12.35 27.7865H12.4655C13.0181 27.7853 13.4774 28.206 13.5155 28.7497C14.0786 33.778 16.6904 38.3661 20.75 41.4576L21.548 47.3093C21.6504 50.3969 24.2701 52.8179 27.4004 52.7169C30.0701 52.6314 32.3157 50.7193 32.7935 48.1275L36.29 32.095C36.3267 31.9811 36.4514 31.9177 36.5669 31.9539C36.6352 31.9759 36.6877 32.0277 36.71 32.095L40.2275 48.1275C40.6147 50.0539 41.9849 51.645 43.85 52.3324C44.4616 52.5395 45.1034 52.6444 45.7505 52.6431C48.7666 52.6457 51.2735 50.349 51.494 47.3818L52.25 41.4576C56.3135 38.3674 58.9293 33.7806 59.495 28.7497C59.5331 28.206 59.9924 27.7853 60.545 27.7865H60.65C63.5493 27.7865 65.9 30.1052 65.9 32.965V59.8929Z" fill="white"/>
<path d="M15.4997 49.1322C15.4997 48.793 15.3304 48.4758 15.0482 48.2829L12.0767 46.2116L15.0482 44.1402L13.8512 42.4417L9.65118 45.3416C9.3598 45.541 9.18918 45.8724 9.19968 46.2219C9.19968 46.5611 9.36899 46.8783 9.65118 47.0712L12.6227 49.1426L9.65118 51.2139C9.17868 51.5454 9.06843 52.1914 9.40443 52.6587C9.47268 52.7532 9.55668 52.8361 9.65118 52.9021L12.6227 54.9735L9.65118 57.0449L10.8482 58.7434L15.0482 55.8435C15.3527 55.6363 15.5246 55.2855 15.4997 54.9217C15.4997 54.5825 15.3304 54.2653 15.0482 54.0724L12.0767 52.0011L15.0482 49.9297C15.3159 49.7471 15.4826 49.4533 15.4997 49.1322Z" fill="white"/>
<path d="M63.8 49.1322C63.8 48.793 63.6307 48.4758 63.3485 48.2829L60.377 46.2116L63.3485 44.1402L62.1515 42.4417L57.9515 45.3416C57.6693 45.5345 57.5 45.8517 57.5 46.1909C57.5 46.53 57.6693 46.8472 57.9515 47.0401L60.923 49.1115L57.9515 51.1829C57.479 51.5143 57.3687 52.1603 57.7047 52.6277C57.773 52.7222 57.857 52.805 57.9515 52.871L60.923 54.9424L57.9515 57.0138L59.1485 58.7123L63.3485 55.8124C63.6438 55.6104 63.8131 55.2751 63.8 54.9217C63.8 54.5825 63.6307 54.2653 63.3485 54.0724L60.377 52.0011L63.3485 49.9297C63.6162 49.7471 63.7829 49.4533 63.8 49.1322Z" fill="white"/>
</g>
<defs>
<filter id="filter0_d_256_302" x="0" y="0" width="73" height="68" filterUnits="userSpaceOnUse" color-interpolation-filters="sRGB">
<feFlood flood-opacity="0" result="BackgroundImageFix"/>
<feColorMatrix in="SourceAlpha" type="matrix" values="0 0 0 0 0 0 0 0 0 0 0 0 0 0 0 0 0 0 127 0" result="hardAlpha"/>
<feOffset/>
<feGaussianBlur stdDeviation="2.5"/>
<feComposite in2="hardAlpha" operator="out"/>
<feColorMatrix type="matrix" values="0 0 0 0 1 0 0 0 0 1 0 0 0 0 1 0 0 0 0.5 0"/>
<feBlend mode="normal" in2="BackgroundImageFix" result="effect1_dropShadow_256_302"/>
<feBlend mode="normal" in="SourceGraphic" in2="effect1_dropShadow_256_302" result="shape"/>
</filter>
</defs>
</svg>
