<svg width="79" height="68" viewBox="0 0 79 68" fill="none" xmlns="http://www.w3.org/2000/svg">
<g filter="url(#filter0_d_257_307)">
<path d="M68.2578 40.4309H60.5547C60.145 40.4309 59.8108 40.0911 59.8108 39.6735V36.8063C59.8108 34.687 58.1114 32.9634 56.024 32.9634H52.1441C50.0553 32.9634 48.3573 34.687 48.3573 36.8063V39.6735C48.3573 40.0911 48.0231 40.4309 47.6134 40.4309H37.3067C37.6639 38.8738 37.893 37.0424 37.893 34.8466C37.893 30.8222 36.1707 28.6728 34.7247 27.5797C32.2787 25.7292 28.9218 25.5777 26.678 26.2491C25.6861 26.5466 24.8735 26.8032 24.3681 26.967C24.0501 27.0693 23.7145 27.0693 23.3978 26.967C22.8911 26.8032 22.0785 26.5453 21.0867 26.2491C18.8429 25.5777 15.4859 25.7292 13.04 27.5797C11.5953 28.6728 9.87168 30.8222 9.87168 34.8466C9.87168 37.0451 10.1008 38.8793 10.4592 40.4377C7.42439 40.5879 5 43.1357 5 46.2458V52.2518C5 58.1772 9.76118 62.9987 15.6126 62.9987H19.5989C20.1568 62.9987 20.6096 62.5401 20.6096 61.9752C20.6096 61.4102 20.1568 60.9516 19.5989 60.9516H15.6126C10.8757 60.9516 7.02144 57.0487 7.02144 52.2518V46.2458C7.02144 44.1674 8.69116 42.4766 10.7423 42.4766H11.0455C11.726 44.4267 12.5912 45.8664 13.3203 47.081C13.6531 47.6337 13.9671 48.1564 14.2057 48.6395C14.4684 49.169 14.738 51.3934 14.9361 53.0174C15.0291 53.7775 15.1234 54.5636 15.2245 55.265C15.4401 56.7825 16.7446 57.9275 18.2593 57.9275C19.0976 57.9275 19.8805 57.5918 20.4627 56.9804C21.0462 56.3677 21.3521 55.5625 21.3238 54.711C21.2551 52.694 21.1972 50.2389 21.1972 49.6425C21.1972 47.9899 22.844 47.3717 23.8843 47.3717C24.922 47.3717 26.5688 47.9899 26.5688 49.6425C26.5688 50.2403 26.5095 52.6967 26.4421 54.711C26.4138 55.5625 26.7184 56.3677 27.3033 56.9804C27.8855 57.5918 28.6684 57.9275 29.508 57.9275C31.0214 57.9275 32.3259 56.7825 32.5429 55.265C32.6426 54.5636 32.7383 53.7761 32.8313 53.016C33.028 51.392 33.2989 49.169 33.5603 48.6395C33.8002 48.1564 34.1128 47.6337 34.4457 47.081C35.1748 45.8664 36.04 44.4281 36.7205 42.4766H41.3564C41.3658 42.6895 41.4076 42.901 41.4857 43.1057C42.1259 44.7488 42.8697 45.9879 43.526 47.0824C43.8576 47.6351 44.1716 48.1577 44.4101 48.6408C44.6729 49.1717 44.9437 51.4016 45.1418 53.031C45.2335 53.7871 45.3292 54.569 45.4276 55.2677C45.6445 56.7853 46.9504 57.9302 48.4624 57.9302C50.1523 57.9302 51.5283 56.5355 51.5283 54.8215C51.5283 54.7819 51.5283 54.7437 51.5256 54.7055C51.4568 52.6626 51.3989 50.2171 51.3989 49.6453C51.3989 47.9913 53.0471 47.3744 54.0861 47.3731C55.1237 47.3731 56.7705 47.9913 56.7705 49.6453C56.7705 50.2403 56.7126 52.6694 56.6452 54.6564C56.5873 56.3499 57.8716 57.8156 59.5062 57.9234C59.575 57.9275 59.6423 57.9302 59.7111 57.9302C60.4496 57.9302 61.1544 57.6641 61.7137 57.1728C62.2729 56.6843 62.6395 56.0074 62.7446 55.2664C62.8443 54.5677 62.9387 53.7843 63.0303 53.0269C63.227 51.3989 63.4979 49.1703 63.7607 48.6408C63.9992 48.1577 64.3132 47.6351 64.6461 47.0824C65.3024 45.9893 66.0463 44.7488 66.6864 43.1071C66.7659 42.9037 66.8064 42.6908 66.8158 42.4779H68.2591C70.3115 42.4779 71.9799 44.1688 71.9799 46.2472V52.2532C71.9799 57.05 68.1257 60.953 63.3888 60.953H24.542C23.9841 60.953 23.5313 61.4115 23.5313 61.9765C23.5313 62.5415 23.9841 63 24.542 63H63.3874C69.2388 63 74 58.1786 74 52.2532V46.2472C74 43.0416 71.4233 40.4323 68.2578 40.4323V40.4309ZM32.7167 46.0179C32.3623 46.6075 32.0281 47.1643 31.7518 47.7224C31.361 48.5112 31.14 50.1543 30.8233 52.7663C30.7316 53.5169 30.6373 54.292 30.5416 54.973C30.4675 55.4902 30.0228 55.8805 29.5066 55.8805C29.221 55.8805 28.9541 55.7659 28.756 55.5584C28.5566 55.3496 28.4515 55.074 28.4622 54.7819C28.531 52.7485 28.5903 50.2566 28.5903 49.6425C28.5903 46.9418 26.1982 45.326 23.8816 45.3247C21.5691 45.326 19.1757 46.9418 19.1757 49.6425C19.1757 50.2539 19.235 52.7458 19.3051 54.7819C19.3145 55.074 19.2108 55.3496 19.0113 55.5584C18.8132 55.7659 18.5464 55.8805 18.2607 55.8805C17.7445 55.8805 17.2998 55.4902 17.227 54.973C17.13 54.292 17.0357 53.5169 16.9454 52.7676C16.6287 50.1543 16.4077 48.5112 16.0155 47.7211C15.7393 47.1629 15.4051 46.6061 15.0506 46.0166C13.645 43.6775 11.8958 40.7653 11.8958 34.8453C11.8958 32.2947 12.6882 30.4005 14.2515 29.2173C16.1368 27.7912 18.7553 27.6834 20.5153 28.2102C21.4896 28.5022 22.2874 28.7547 22.7833 28.9157C23.503 29.1491 24.2644 29.1491 24.9853 28.9157C25.4813 28.7547 26.2777 28.5022 27.2534 28.2102C29.0134 27.6834 31.6319 27.7912 33.5172 29.2173C35.0804 30.4005 35.8729 32.2933 35.8729 34.8453C35.8729 40.7653 34.1236 43.6761 32.7181 46.0166L32.7167 46.0179ZM62.9171 46.0179C62.5627 46.6075 62.2285 47.1643 61.9522 47.7224C61.5614 48.5126 61.3404 50.1584 61.0237 52.7758C60.9334 53.5237 60.839 54.2961 60.7434 54.9743C60.707 55.2254 60.5843 55.4561 60.3916 55.6239C60.1827 55.8068 59.9146 55.8982 59.6383 55.8805C59.0817 55.8436 58.6465 55.3251 58.6667 54.726C58.7367 52.6626 58.7933 50.258 58.7933 49.6439C58.7933 46.9432 56.4013 45.326 54.0847 45.3247C51.7708 45.326 49.3788 46.9432 49.3788 49.6439C49.3788 50.303 49.4421 52.8482 49.5068 54.7819C49.5068 54.7887 49.5068 54.7901 49.5068 54.7969V54.8215C49.5068 55.4069 49.0378 55.8832 48.4624 55.8832C47.9463 55.8832 47.5016 55.4929 47.4274 54.9757C47.3318 54.2988 47.2374 53.5278 47.1471 52.7813C46.8291 50.1611 46.6081 48.5126 46.2159 47.7224C45.9396 47.1656 45.6068 46.6088 45.2524 46.0193C44.6554 45.0244 43.9802 43.8999 43.4128 42.4779H47.6121C49.1362 42.4779 50.3774 41.2197 50.3774 39.6735V36.8063C50.3774 35.8156 51.1698 35.0104 52.1428 35.0104H56.0226C56.997 35.0104 57.788 35.8156 57.788 36.8063V39.6735C57.788 41.2197 59.0278 42.4779 60.5533 42.4779H64.7539C64.1866 43.8999 63.5127 45.0231 62.9144 46.0179H62.9171Z" fill="white"/>
<path d="M43.0121 22.7433H65.1577C65.9406 22.7433 66.6441 22.2452 66.9069 21.5041C67.706 19.2483 68.0941 16.7619 68.0941 13.9029C68.0941 12.1438 67.7599 10.5935 67.0996 9.29297C66.8449 8.79076 66.2358 8.59152 65.7385 8.85081C65.2412 9.1101 65.0458 9.72557 65.3019 10.2291C65.814 11.2376 66.0727 12.474 66.0727 13.9042C66.0727 16.4739 65.7358 18.697 65.0445 20.6976H43.1253C42.4339 18.6984 42.097 16.4739 42.097 13.9042C42.097 11.3345 42.8813 9.52496 44.4271 8.35134C46.3043 6.92797 49.005 6.82699 50.7191 7.33465C51.6962 7.62396 52.4926 7.87506 52.9886 8.03336C53.7068 8.264 54.4656 8.264 55.1838 8.03336C55.6798 7.8737 56.4749 7.62396 57.4519 7.33465C58.65 6.97983 60.5676 6.85564 62.3586 7.57483C62.8775 7.78363 63.465 7.5257 63.6699 7.0003C63.8747 6.4749 63.6214 5.8799 63.1025 5.6711C61.1768 4.89869 58.8521 4.78542 56.8832 5.37087C55.8887 5.66564 55.0774 5.92084 54.572 6.08323C54.254 6.18558 53.9171 6.18558 53.5977 6.08323C53.0923 5.92084 52.2811 5.66564 51.2865 5.37087C49.0319 4.70218 45.6615 4.85775 43.2142 6.71372C41.7817 7.8 40.0742 9.92891 40.0742 13.9042C40.0742 16.7632 40.4623 19.2497 41.2628 21.5055C41.5256 22.2465 42.2291 22.7446 43.0121 22.7446V22.7433Z" fill="white"/>
<path d="M54.0851 24.4272C53.5272 24.4272 53.0744 24.8858 53.0744 25.4508V28.3575L50.906 26.9342C50.4371 26.6257 49.8118 26.7622 49.5085 27.2358C49.2053 27.7107 49.3374 28.3439 49.8064 28.6509L53.5636 31.1183C53.7307 31.2288 53.922 31.2834 54.1134 31.2834C54.3048 31.2834 54.5015 31.2275 54.67 31.1142L58.3692 28.6468C58.8355 28.3357 58.9649 27.7011 58.6576 27.2289C58.3503 26.7568 57.7237 26.6271 57.2574 26.9369L55.0958 28.3794V25.4508C55.0958 24.8858 54.643 24.4272 54.0851 24.4272Z" fill="white"/>
</g>
<defs>
<filter id="filter0_d_257_307" x="0" y="0" width="79" height="68" filterUnits="userSpaceOnUse" color-interpolation-filters="sRGB">
<feFlood flood-opacity="0" result="BackgroundImageFix"/>
<feColorMatrix in="SourceAlpha" type="matrix" values="0 0 0 0 0 0 0 0 0 0 0 0 0 0 0 0 0 0 127 0" result="hardAlpha"/>
<feOffset/>
<feGaussianBlur stdDeviation="2.5"/>
<feComposite in2="hardAlpha" operator="out"/>
<feColorMatrix type="matrix" values="0 0 0 0 1 0 0 0 0 1 0 0 0 0 1 0 0 0 0.5 0"/>
<feBlend mode="normal" in2="BackgroundImageFix" result="effect1_dropShadow_257_307"/>
<feBlend mode="normal" in="SourceGraphic" in2="effect1_dropShadow_257_307" result="shape"/>
</filter>
</defs>
</svg>
