<svg width="70" height="68" viewBox="0 0 70 68" fill="none" xmlns="http://www.w3.org/2000/svg">
<g filter="url(#filter0_d_257_317)">
<path d="M19.2873 11.9094C19.449 12.5638 20.3069 12.7893 20.7779 12.3014L22.0576 10.9753L23.0396 14.853C23.3103 15.9213 25.0213 15.5248 24.7447 14.4334L23.376 9.02596C23.2107 8.37388 22.3564 8.15189 21.8865 8.63864L20.6127 9.95783L19.5428 5.63954C19.2733 4.55043 17.5659 4.96203 17.8354 6.05114L19.2862 11.9106L19.2873 11.9094Z" fill="white"/>
<path d="M27.0769 12.7141L28.932 12.7303L26.73 16.0843C26.1265 17.0035 27.6007 17.9481 28.2054 17.0266L31.2769 12.3476C31.6472 11.7834 31.2277 11.0157 30.5468 11.0087L28.7011 10.9925L31.1691 7.27315C31.7913 6.3355 30.3206 5.38513 29.6984 6.32278L26.3492 11.3695C25.9754 11.9337 26.3937 12.706 27.0769 12.7118V12.7141Z" fill="white"/>
<path d="M63.4214 23.6227L64.7808 22.0746C65.5249 21.2271 64.196 20.0917 63.4519 20.9392L61.8582 22.7555H59.9445L61.489 20.1149C62.0726 19.1182 61.4984 17.7817 60.3863 17.488L57.4016 16.6984L58.7551 15.363L61.1843 15.5353C62.2894 15.6174 62.4136 13.8831 61.3097 13.8056L59.2391 13.6588L59.0902 11.6159C59.0094 10.4979 57.2563 10.6216 57.3371 11.7396L57.5117 14.1375L56.1582 15.4728L55.359 12.5281C55.0614 11.432 53.7032 10.8667 52.6965 11.4401L50.0212 12.964V11.0748L51.8622 9.50123C52.7211 8.76707 51.5704 7.45597 50.7114 8.19014L49.1423 9.5313L47.5731 8.19014C46.7142 7.45597 45.5634 8.76707 46.4224 9.50123L48.2634 11.0748V12.964L45.588 11.4401C44.5779 10.8644 43.2232 11.4309 42.9255 12.5281L42.1263 15.4728L40.7728 14.1375L40.9474 11.7396C41.0283 10.6216 39.2763 10.4967 39.1943 11.6159L39.0455 13.6588L36.9748 13.8056C35.8639 13.8843 36.0186 15.6151 37.1002 15.5353L39.5295 15.363L40.883 16.6984L38.9107 17.2198C35.7725 16.2509 32.2639 16.6498 29.4292 18.2927C27.2143 19.4859 25.0604 19.4859 22.8456 18.2927C18.205 15.6035 12.1746 16.4359 8.42114 20.2143C6.286 22.3659 5.07195 25.1951 5.00398 28.1803C4.88445 33.4963 7.47896 39.9223 9.98909 46.1356C10.6067 47.664 11.1891 49.1081 11.7363 50.5429C12.1289 51.5719 13.7812 50.9811 13.3816 49.9324C12.8285 48.4826 12.2156 46.9634 11.6215 45.4939C9.17699 39.4414 6.64928 33.183 6.76178 28.2196C6.8192 25.676 7.85513 23.2643 9.67972 21.4283C12.9621 18.1239 17.9461 17.6083 21.9925 19.8073C24.7452 21.2953 27.5354 21.2953 30.2881 19.8073C31.5338 19.1298 32.7854 18.7113 34.1916 18.5714C34.3088 18.5598 36.6771 18.5748 36.6924 18.539C36.4756 19.0547 36.5142 19.6293 36.799 20.1149L38.3435 22.7555H36.4299L34.8361 20.9392C34.092 20.0917 32.7631 21.2271 33.5072 22.0746L34.8666 23.6227L33.5072 25.1708C32.7713 26.009 34.0803 27.1675 34.8361 26.3061L36.4299 24.4898H38.3435L36.799 27.1305C36.2154 28.1271 36.7896 29.4636 37.9017 29.7573L40.8865 30.5458L39.533 31.8812L37.1037 31.7089C35.9705 31.6245 35.8439 33.3576 36.9783 33.4385L39.049 33.5854L39.1978 35.6283C39.2775 36.7197 41.033 36.6388 40.9509 35.5046L40.7763 33.1079L42.1298 31.7725L42.929 34.7173C43.0743 35.2514 43.4728 35.6977 43.9943 35.9104C44.0587 35.937 44.1243 35.959 44.19 35.9775C43.2513 39.0714 41.9365 42.3295 40.6591 45.4927C38.7912 50.1163 37.0275 54.4831 36.4557 58.1794C35.7701 62.6063 33.1416 61.3854 31.9662 57.9181C31.1436 55.489 30.5155 52.9974 29.7889 50.5406C28.637 46.6431 23.653 46.6189 22.4929 50.5406C21.7663 52.9974 21.1394 55.4901 20.3156 57.9181C19.1402 61.3854 16.5117 62.6063 15.8261 58.1794C15.6586 57.096 15.3832 55.9133 14.9836 54.5652C14.6648 53.4888 12.9773 53.9756 13.2961 55.0519C13.6734 56.326 13.9324 57.4337 14.0883 58.4407C14.3695 60.2605 14.9508 62.3208 16.9734 62.8757C19.7964 63.6504 21.2495 60.6281 21.982 58.4673C22.8128 56.0173 23.4468 53.5038 24.1792 51.025C24.8519 48.752 27.4276 48.752 28.1003 51.025C28.8327 53.5038 29.4678 56.0173 30.2975 58.4673C31.0299 60.6293 32.4748 63.6515 35.3061 62.8757C37.324 62.3219 37.9099 60.2605 38.1912 58.4407C38.7326 54.941 40.4611 50.6631 42.2892 46.1344C43.7177 42.5989 45.1931 38.9431 46.1634 35.4769L48.2634 34.2802V36.1694L46.4224 37.743C45.5634 38.4771 46.7142 39.7871 47.5731 39.054L49.1423 37.7129L50.7114 39.054C51.5575 39.7766 52.7293 38.4841 51.8622 37.743L50.0212 36.1694V34.2802L52.6965 35.8041C53.7079 36.3798 55.0614 35.8122 55.359 34.7161L56.1582 31.7713L57.5117 33.1067L57.3371 35.5035C57.2586 36.5903 59.007 36.7671 59.0902 35.6272L59.2391 33.5842L61.3097 33.4374C62.4429 33.3576 62.3175 31.6245 61.1843 31.7078L58.7551 31.88L57.4016 30.5446L60.3863 29.7561C61.4972 29.4625 62.0703 28.1225 61.489 27.1293C61.2465 26.7143 60.7086 26.5721 60.289 26.8114C59.8683 27.0507 59.7242 27.5814 59.9668 27.9953C59.9832 28.0335 59.9715 28.0624 59.9316 28.0809L55.9672 29.1295L52.8641 26.0668L59.3867 24.4886H61.8582L63.4519 26.305C64.2078 27.1663 65.5167 26.009 64.7808 25.1696L63.4214 23.6215V23.6227ZM59.9305 19.1633C59.9703 19.1818 59.982 19.2096 59.9656 19.2477L58.0965 22.4434L52.8629 21.1774L55.966 18.1147L59.9305 19.1633ZM53.5754 12.942C53.6141 12.9258 53.6422 12.9374 53.661 12.9767L54.7227 16.8891L51.6196 19.9507L50.3364 14.7861L53.5743 12.9408L53.5754 12.942ZM44.6236 12.9767C44.6423 12.9374 44.6704 12.9258 44.7091 12.942L47.947 14.7872L46.6638 19.9518L43.5607 16.8903L44.6224 12.9778L44.6236 12.9767ZM38.3142 19.2026C38.3213 19.1865 38.3365 19.168 38.3553 19.1633L42.3197 18.1147L45.4228 21.1774L40.1892 22.4434L38.3201 19.2477C38.3095 19.2292 38.3084 19.2188 38.3154 19.2026H38.3142ZM38.3553 28.082C38.3154 28.0635 38.3037 28.0358 38.3201 27.9965L40.1892 24.8008L45.4228 26.0668L42.3197 29.1295L38.3553 28.0809V28.082ZM43.5618 30.3562L46.6649 27.2947L47.9481 32.4593L44.7103 34.3045C44.6915 34.3149 44.6821 34.3161 44.6646 34.3091C44.6482 34.3022 44.6294 34.2872 44.6247 34.2687L43.563 30.3562H43.5618ZM53.661 34.2687C53.6422 34.308 53.6141 34.3195 53.5754 34.3034L50.3376 32.4581L51.6208 27.2935L54.7239 30.355L53.661 34.2675V34.2687ZM50.9294 24.7499C50.6153 24.8262 50.3622 25.076 50.2848 25.3858L49.1423 29.9839L47.9997 25.3858C47.9224 25.0771 47.6704 24.8262 47.3552 24.7499L42.6947 23.6227L47.3552 22.4954C47.6692 22.4203 47.9224 22.1682 47.9997 21.8595L49.1423 17.2614L50.2848 21.8595C50.3622 22.1682 50.6153 22.4191 50.9294 22.4954L55.5899 23.6227L50.9294 24.7499Z" fill="white"/>
<path d="M18.2909 22.6432C18.2909 22.1646 17.8972 21.7761 17.412 21.7761C13.4676 21.7761 10.2578 24.9429 10.2578 28.8345C10.2578 29.956 12.0156 29.956 12.0156 28.8345C12.0156 25.899 14.4367 23.5104 17.412 23.5104C17.8972 23.5104 18.2909 23.1219 18.2909 22.6432Z" fill="white"/>
</g>
<defs>
<filter id="filter0_d_257_317" x="0" y="0" width="70" height="68" filterUnits="userSpaceOnUse" color-interpolation-filters="sRGB">
<feFlood flood-opacity="0" result="BackgroundImageFix"/>
<feColorMatrix in="SourceAlpha" type="matrix" values="0 0 0 0 0 0 0 0 0 0 0 0 0 0 0 0 0 0 127 0" result="hardAlpha"/>
<feOffset/>
<feGaussianBlur stdDeviation="2.5"/>
<feComposite in2="hardAlpha" operator="out"/>
<feColorMatrix type="matrix" values="0 0 0 0 1 0 0 0 0 1 0 0 0 0 1 0 0 0 0.5 0"/>
<feBlend mode="normal" in2="BackgroundImageFix" result="effect1_dropShadow_257_317"/>
<feBlend mode="normal" in="SourceGraphic" in2="effect1_dropShadow_257_317" result="shape"/>
</filter>
</defs>
</svg>
